<?xml version="1.0" encoding="utf-8"?>
<!-- Generator: Adobe Illustrator 26.0.3, SVG Export Plug-In . SVG Version: 6.00 Build 0)  -->
<svg version="1.1" xmlns="http://www.w3.org/2000/svg" xmlns:xlink="http://www.w3.org/1999/xlink" x="0px" y="0px" viewBox="0 0 566.93 425.2" style="enable-background:new 0 0 566.93 425.2; fill: rgb(240, 253, 250); stroke: rgb(240, 253, 250);" xml:space="preserve">
	<g id="Scan_xA0_Image_1_">
		<path d="M244.82,80.06c-0.54,0.11,0.23,4.8,0.98,4.8c7.31,0.05,30.71,1.88,35.06,1.74c5.1-0.17,129.81-3.99,150.96-3.08
		c0.83,0.03,0.17,3.58-1.02,3.69c-8.82,0.75-17.65,1.53-26.49,1.88c-17.51,0.7-123.16,2.45-158.45,2.98
		c-0.72,0.02-2.11,2.45-1.97,2.6c5.9,6.2-6.11,12.73-7.75,11.65c-2.32-1.53-4.57-4.51-6.87-4.53c-27.63-0.2-55.27,0.01-82.9,0.15
		c-14.06,0.07-28.12,0.12-42.17,0.46c-0.86,0.02-2.4,2.56-2.38,3.91c1.4,33.99-2.02,258.76-0.8,281.84
		c0.02,1.31-6.68,3.37-7.41,2.77c-9.87-7.99-19.9-15.78-29.54-24.03c-2.96-2.53-3.24-0.82-2.66-0.32
		c6.77,5.86,16.58,14.2,23.28,20.13c0.67,0.59-1.34,2.81-2.05,2.22c-4-3.32-17.2-17.44-21.16-20.82c-0.28-0.24-1.25,4.74,1.6,7.03
		c3.17,4.42,13.84,16.35,12.87,15.47c-4.55-3.69-10.6-12.68-15.32-16.01c-0.47,5.67,2.73,15.09,2.47,20.79
		c-0.02,0.8-6.12-2.13-6.52-4.51c-2.46-26.29-7.16-243.66-7.15-265.31c0-6.4,2.08-18.01,0.26-23.83c-0.76-2.43-8.89,2-13.23,0.7
		c-1.63-0.49-1.23-6.4,0.43-5.99c11.07,2.7,14.29,0.66,14.52-12.75c0.24-13.78-0.93-18.69-14.59-13.14c-0.78,0.32-1.1-7.63,0.3-7.56
		c11.96,0.57,14.52-2.28,13.4-14.61c0.12-2.58,7.64,1.36,7.55,2.31c-1.26,13.25-1.24,13.47,11.98,12.5
		c7.44-0.54,14.82-1.9,22.21-2.99c2.38-2.9,4.05-6.96,6.3-10.11c0.03-0.05,2.49,0.97,2.47,1.44c-0.61,14.78,9.86,9.84,17.49,9.93
		c29.06,0.38,58.13,0.68,87.18,1.35c9.37,0.23,18.74,0.85,28.11,0.97c1.29,0.02,2.57-1.9,3.9-2.85c1.76-1.26,6.58-0.45,6.28,0.98
		c-2.42,11.79-0.26,12.19,15.09,11.48c19.59-0.91,151.7,0.04,161.92-0.01c1.37-0.01,1.35,4.71-0.29,4.98
		C417.04,78.95,266.9,78.1,244.82,80.06z M195.34,100.86c0.23-0.46,0.47-0.92,0.7-1.38c2.88,0.22,5.68-0.42,8.51-0.88
		c-1.17-1.46-2.1-3.25-3.56-4.32c-8.1-5.94-16.35-11.68-24.48-17.59c-1.02-0.74-1.63-2.05-2.43-3.09c1.45,0.44,3.17,0.52,4.3,1.38
		c9.99,7.59,19.83,15.37,29.85,22.92c0.95,0.72,2.75,0.31,4.15,0.42c-0.23-0.6-0.29-1.42-0.73-1.78
		c-8.56-6.82-16.91-13.91-25.79-20.32c2.78,0.77,5.61,1.35,8.34,2.27c-6.67-7.04-15.52-11.89-25.85-9.52
		c-0.42,0.1-1.03,1.06-1.02,1.07c5.62,5.52,11.41,10.87,17.21,16.2c0.37,0.36-4.79-2.22-7.6-3.88c-7.29-4.28-11.05-14.3-21.63-13.23
		c-3.33,0.43-6.79-0.12-10.04,0.89c7.06,6.84,15.42,12.35,22.89,18.77c0.44,0.36-1.49,2.5-2,2.09c-3.56-2.82-7.05-5.73-10.49-8.71
		c-4.71-4.08-9.28-8.33-14.09-12.29c-0.85-0.7-2.6-0.29-3.94-0.4c0.39,0.74,0.61,1.7,1.21,2.2c8.19,6.78,16.46,13.46,24.64,20.26
		c0.68,0.56-0.54,2.29-1.2,1.79c-6.69-4.6-12.61-10.72-19.71-14.52c2.67,3.76,6.73,6.34,9.94,9.66c0.41,0.38-0.89,2.02-1.31,1.7
		c-2.99-2.28-5.83-4.75-8.84-7.01c-5.91-4.44-11.85-8.86-17.91-13.09c-0.89-0.62-2.52-0.17-3.81-0.21c6.37,7.39,14.92,12.8,22,19.57
		c1.33,1.17,1.96,3.12,2.91,4.71c-10.59-7.07-19.82-15.98-29.93-23.71c-0.75-0.6-2.28-0.21-3.45-0.28c0.08,0.4,0.01,0.97,0.25,1.18
		c14.51,12.57,29.95,29.15,50.92,26.84c7.95-0.3,16.12-1.49,23.94-2.08C190.01,97.88,192.66,99.39,195.34,100.86z M61.62,315.45
		c8.13,6.96,18.14,15.44,26.76,22.44c0.76,0.62,2.08,0.55,3.14,0.8c-8.79-8.29-18.07-16.11-26.96-24.31
		c-0.52-0.47-0.49-1.55-0.71-2.35c0.83,0.06,1.94-0.2,2.44,0.24c6.32,5.63,12.6,11.31,18.78,17.08c5.64,5.26,5.58,5.32,7.49,0.46
		c0.43-3.2,1.55-9.03-0.04-10.58c-9.33-9.5-19.46-18.21-29.36-27.15c-0.45-0.4-1.45-0.66-1.93-0.42c-0.45,0.22-0.78,1.18-0.75,1.8
		C60.78,300.21,61.16,306.93,61.62,315.45z M60.14,280.38c0.78,1.48,2.02,5.52,4.59,8.32c8.97,9.15,17.66,18.91,28.31,26.13
		c0.01,0.01,0.35-0.37,0.34-0.39c-2.56-3.27-6.4-5.65-7.73-9.66c2.69,1.3,5.3,2.78,7.94,4.19c-2.61-3.86-5.65-7.37-8.8-10.79
		c2.82,1.64,5.56,3.42,8.47,4.89c0.11-0.41,0.44-0.92,0.3-1.21c-1.2-2.56-1.91-5.67-3.83-7.5c-9.38-8.34-18.13-17.77-28.91-24.29
		C60.67,272.58,60.5,275.09,60.14,280.38z M58.56,337.76c0.03,2.53,2.21,6.55,4.34,8.83c8.18,7.99,16.97,15.35,25.59,22.89
		c0.8,0.7,1.87,1.1,2.81,1.64c-1.66-1.76-3.03-3.71-4.28-5.78c1.21-0.13,2.18,0.49,3.19,1.07c-1.57-1.9-2.9-3.98-4.31-6
		c1.72,0.64,3.3,1.88,5.18,1.81c-0.36-1.67-0.16-3.9-1.18-4.91c-4.61-4.6-9.41-9.03-14.43-13.19c-4.89-4.05-10.21-7.58-15.11-11.63
		c-0.83-0.69-0.54-0.36-0.6-1.82c-0.02-0.39,15.28,13.71,15.7,13.45c9.55,7.88,14.24,8.42,14.72,8.51
		c-6.95-8.68-21.6-21.66-28.81-30.6C62.66,322.12,58.61,325.11,58.56,337.76z M92.39,205.25c-3.32-3.82-26.85-22.92-31.64-25.19
		c0,0.21-2.71,4.52,1.72,7.47c5.5,3.65,18.41,11.04,22.19,15.11c0.56,0.6,7.83,6.09,7.74,7.06c-1.24-0.12-2.78,0.18-3.66-0.44
		c-8.89-6.3-17.65-12.78-26.52-19.1c-0.92-0.65-2.31-0.65-3.48-0.95c0.25,0.8,0.25,1.95,0.8,2.36
		c10.19,7.67,20.47,15.23,30.65,22.91c0.77,0.58,1.09,1.82,1.48,2.81c0.1,0.24-0.48,1.03-0.54,1.01
		c-9.49-5.35-19.35-14.67-28.67-21.06c-0.9-0.67-2.47-0.43-3.73-0.61c8.3,7.53,17.75,13.77,26.37,20.94
		c0.75,0.59,0.64,2.26,0.92,3.43c-1.12-0.39-2.42-0.52-3.31-1.2c-5.03-3.82-9.95-7.78-14.94-11.64c-0.39-0.3-1.07-0.24-1.62-0.34
		c6.2,6.79,13.77,12.5,20.62,18.7c1.94,1.65,4.45,2.62,6.7,3.91C93.92,226.21,94.73,208.1,92.39,205.25z M202.7,67.24
		c-5.38-0.02-14.43-0.61-18.45,0c0.9,0.87,10.37,4.49,11.44,4.81c1.26,0.38,8.29,2.53,10.2,4.08c8.89,6.5,20.32,19.6,30.51,23.99
		c0.76-1.71,0.15-9.19,0.14-10.89c-0.26-1.75-5.76-2.77-7.3-4.12C220.5,78.41,215.09,63.63,202.7,67.24z M90.1,146.24
		c1.32-0.68,2.09-3.06,1.43-3.52c-9.77-7.05-31.01-22.64-31.55-23.84c1,0.26,2.16,0.29,2.98,0.83c8.53,5.52,16.99,11.15,25.52,16.68
		c1.01,0.65,2.29,0.88,3.44,1.3c-0.77-1.03-1.35-2.29-2.33-3.04c-8.25-6.35-16.69-12.46-24.81-18.97c-2.48-1.86-3.31-5.61-5.69-7.73
		c-0.07-0.05-0.66,0.31-0.67,0.51c-0.22,4.11-1.97,9.18-0.2,12.13C65.8,131.93,79.1,138.67,90.1,146.24z M60.49,234.44
		c-0.5,0.36-0.82,0.49-0.81,0.6c0.24,4.09-1.11,9.75,1.06,11.98c7.37,7.57,15.97,13.95,24.19,20.67c0.41,0.34,1.74-0.44,2.64-0.7
		c-0.21-0.55-0.26-1.27-0.65-1.61c-6.95-6.15-13.97-12.2-20.88-18.4c-1.16-1.04-1.82-2.63-2.71-3.97c1.52,0.55,3.39,0.7,4.51,1.7
		c7.2,6.38,14.18,13.02,21.43,19.34c0.91,0.8,3.02,0.23,4.57,0.3c-0.76-1.24-1.27-2.79-2.33-3.68
		C80.99,252.13,70.48,243.6,60.49,234.44z M93.2,162.55c-0.09-0.2-0.31-1.93-1.27-2.62c-6.52-4.67-27.59-20.31-34.24-24.79
		c-0.48-0.33,0.36,3.19-0.25,3.06c0.27,0.61,13.22,9.17,13.68,9.49c6.23,4.35,12.6,8.5,18.7,13.03c1.29,0.96,1.61,3.23,2.38,4.9
		c-1.25-0.32-2.71-0.34-3.71-1.02c-8.37-5.76-19.41-14.78-27.75-20.59c-0.57-0.4-3.4-1.03-4.12-1.22
		c7.48,7.94,21.03,18.62,29.11,26.04c2.23,1.94,4.99,3.29,7.5,4.91C93.23,169.54,93.2,167.02,93.2,162.55z M94.36,280.56
		c-0.59-1.09-1-2.73-2.04-3.6c-9.68-8.06-19.47-16-29.25-23.94c-0.61-0.49-1.45-0.7-2.18-1.04c0.05,1.34-0.46,3.26,0.24,3.93
		c7.69,7.5,15.54,14.83,23.42,22.15c1.69,1.47,8.19,3.77,9.1,4.63C93.82,282.13,94.01,281.57,94.36,280.56z M59.44,262.31
		c0.94,1.36,23.33,20.42,33.24,28.62c2.28-3.02-21.56-22.15-30.32-30.08c-0.45-0.41-1.19-0.65-1.8-0.64
		C60.32,260.21,60.08,261.07,59.44,262.31z M94.63,180.33c-2.06-0.47-3.73-0.41-4.83-1.18c-9.9-6.89-20.48-20.91-30.36-27.82
		c-0.27-0.19-0.47,7.65-1.13,8.02c10.46,7.76,20.34,16.25,30.6,24.26c1.15,0.91,2.78,1.21,4.19,1.79
		C93.42,184.33,93.74,183.26,94.63,180.33z M58.93,232.58c1.53,0.29,3.15,0.12,4.03,0.84c8.17,6.61,16.01,13.75,23.75,20.75
		c1.08,0.75,3.04,0.11,4.48,0.51c0.97,0.27,1.73,1.29,2.58,1.97c-0.56-1.13-0.85-2.58-1.74-3.34
		c-10.67-8.39-20.08-18.78-32.13-25.13C59.64,229.37,59.38,230.56,58.93,232.58z M93.8,152.95c-0.67-0.83-1.15-1.81-1.92-2.32
		c-7.34-4.57-26.66-19.73-34.43-23.53c0.71,1.86-0.61,3.32,0.72,4.44c6.38,5.01,26.74,21.02,34.26,24.21
		C92.83,154.93,93.23,154.12,93.8,152.95z M135.84,98.32c2.97-0.82,3.65-1.01,4.33-1.19c-11.58-8.29-22.38-17.64-33.72-26.27
		c-0.82-0.64-2.12-0.72-3.21-0.95c-0.24-0.05-0.58,0.38-0.87,0.59C112.47,80.05,125.68,89.62,135.84,98.32z M91.69,201.22
		c1.08-0.84,1.75-1.14,1.74-1.4c-0.03-0.6-0.21-1.43-0.64-1.75c-10.69-7.94-21.41-15.83-32.15-23.69c-0.5-0.37-1.26-0.38-1.9-0.56
		c0.31,0.87,0.36,2.09,0.97,2.56C70.63,184.33,81.42,192.47,91.69,201.22z M225.62,67.81c-5.13,0.2-7.66-1.78-9.63,0.67
		c4.75,4.11,14.8,14.48,20.78,16.75c-0.51-1.04,0.24-6.31,0-7.42c-0.21-1.75,0.2-7.66-0.72-8.86
		C233.63,67.05,226.21,68.14,225.62,67.81z M60.47,354.27c-0.67,1.02,0.22,7.85,0.32,7.95c1.82,1.84,8.08,6.75,10.01,8.48
		c5.66,5.09,22.11,17.25,22.92,17.27c-0.22-0.6,0.41-2.42,0-2.83C86.31,377.62,68.63,361.36,60.47,354.27z M58.6,71.37
		c-0.57,0.36-0.74,0.47-0.9,0.57c0.61,0.83,1.08,1.82,1.84,2.48c7.13,6.14,30.19,19.12,32.4,19.52
		C84.07,84.49,68.18,78.79,58.6,71.37z M58.11,204.55c0.93,1.64,1.48,3.51,2.71,4.65c11.06,9.42,20.82,20.73,33.23,28.31
		c-8.68-11.13-21.06-18.76-31.4-28.31c-0.69-0.59-1-1.67-1.35-2.58c0.4-0.91,3.87,1.15,4.87,1.18c-1.6-1.17-4.91-4.49-6.52-5.65
		C59.23,202.81,58.81,203.47,58.11,204.55z M59.64,214.27c-0.18,0.45-0.43,0.78-0.38,1.04c0.13,0.62,0.25,1.42,0.65,1.79
		c11.32,10.5,21.89,22.71,33.9,25.95c0.72,0.19-0.64-1.43-1.18-1.89C81.68,231.75,71.52,222.82,59.64,214.27z M114.9,98.12
		c2.69-0.7,3.42-0.89,4.15-1.08c-3.61-5.14-10.85-9.47-15.66-13.89c-0.58-0.47-1.47-0.56-2.22-0.83c-0.11,0.8,0.85,13.24,1.2,13.58
		C107.21,100.69,110.7,94.12,114.9,98.12z M66.2,68.76c-1.51,0.43-2.18,0.62-2.85,0.81c7.75,7,20.65,12.8,29.14,19.01
		C87.57,79.66,73.5,75.09,66.2,68.76z M221.01,97.34c-6.86-5.42-13.74-10.82-20.66-16.16c-0.36-0.28-5.58-2.69-6.16-2.69
		C200.08,85.19,221.8,98.49,221.01,97.34z M124.09,97.08c1.43-0.56,2.02-0.78,2.61-1.01c-0.49-0.79-0.79-1.81-1.48-2.35
		c-8.12-5.83-14.88-16.53-23.38-21.49c0.26,0.46-0.68,7.35-0.31,7.68C109.01,86.47,117.08,90.11,124.09,97.08z M79.06,68.11
		c-3.94,1.07-4.82,1.31-5.7,1.55c4.63,4.79,10.25,8.59,15.32,12.92c0.37,0.3,0.97,0.32,1.46,0.46c0.14-0.52,0.57-1.28,0.38-1.51
		C86.42,76.65,82.25,71.83,79.06,68.11z M201.44,75.03c-0.11,0.36-8.55-1.89-8.49-1.83c6.12,5.8,25.67,17.97,31.85,23.71
		c0.19,0.18,7.81,2.98,7.47,2.65C226.38,93.47,208.3,80.17,201.44,75.03z M91.97,345.21c-5.88-5.96-23.69-21.41-30.57-26.09
		c4.31,6.32,22.04,21.27,27.24,26.85c0.29,0.29,0.73,0.86,0.86,0.8C90.26,346.4,90.96,345.88,91.97,345.21z M56.63,91.73
		c6.14,3.67,19.17,3.69,24.03,6.59c-0.06-0.44,10.16-1.21,9.9-1.4c-3.96-2.98-29.85-15.26-33.93-18.07
		C56.11,78.5,58.59,91.37,56.63,91.73z M92.49,71.46c-1.45-0.88-2.57-2.08-3.79-2.19c-1.7-0.15-3.47,0.51-5.22,0.82
		c2.32,1.75,4.76,6.99,7.08,8.75C91.08,77.86,91.48,73.39,92.49,71.46z M92.95,131.41c0.21-0.66,0.42-1.32,0.62-1.98
		c-4.25-2.32-31.02-21.43-35.26-23.75c-0.03,0.31,22.32,17.57,22.45,17.68c3.34,2.71,6.68,5.41,10.11,8
		C91.32,131.7,92.24,131.41,92.95,131.41z M93.43,197.08c-0.28-0.57,0.12-7.36,0-7.45c-5.9-4.32-28.06-22.72-33.99-26.99
		c-0.16-0.11-1.28,5.65-1.27,5.8c0.04,0.55,0.14,1.32,0.52,1.57C64.96,173.83,86.84,193.91,93.43,197.08z M93.57,118.61
		c-5.79-3.55-30.22-16.81-36.12-17.74c-0.01,0.24,0,4.2,5.41,4.89c5.39,0.69,26.21,18.67,30.72,21.7
		C93.69,127.54,92,118.94,93.57,118.61z M91.93,102.88c-2.32,0.73-19.92-1.46-21.13-1.08c1.93,1.68,19.76,12.12,21.69,13.8
		c0.18-0.34-1.97-5.01-1.12-9.05C91.93,103.86,92.49,104.84,91.93,102.88z M59.49,345.33c-0.34,0.53-0.69,5.85,0.31,6.72
		c2.29,2.02,32.26,29.82,34.46,31.93c-0.13-1.05-0.02-7.48-0.61-8.04C92.01,374.41,61.46,346.72,59.49,345.33z M87.79,248.39
		c1.22-1.44,1.86-2.3,1.91-2.26c4.35,3.7-26.55-22.58-28.95-24.63c-0.13-0.11,0.55,3.69,0,4.08C62,227.23,86.33,246.47,87.79,248.39
		z" />
	</g>
	<g id="Text">
		<g>
			<path d="M125.92,182.11c1.84-0.05,3.15-0.47,3.94-1.26c0.79-0.79,1.23-1.72,1.34-2.8c0.1-1.08,0.16-2.95,0.16-5.63v-34.04
			c0-2.21,0.08-4.1,0.24-5.67l-5.67,0.31v-3.47h36.56l0.39,13.79h-2.6c0-4.31-0.97-7.25-2.92-8.82c-1.94-1.58-4.6-2.31-7.96-2.21
			l-5.75,0.16c-1.84,0.05-3.14,0.47-3.9,1.26c-0.76,0.79-1.21,1.75-1.34,2.88c-0.13,1.13-0.2,2.98-0.2,5.56v13.55l13.71,0.08
			l-0.55-6.86h3.47v16.62h-2.52c0-2-0.22-3.49-0.67-4.49c-0.45-1-1.14-1.68-2.09-2.05c-0.95-0.37-2.26-0.55-3.94-0.55
			c-1.16,0-2.05,0.03-2.68,0.08l-4.73,0.24v16.55c0,2.79-0.08,4.86-0.24,6.22l8.04-0.31v3.47h-20.09V182.11z" />
			<path d="M176.31,183.41c-2.92-1.71-5.21-4.15-6.89-7.33c-1.68-3.18-2.52-6.84-2.52-10.99c0-3.68,0.84-7.13,2.52-10.36
			s4.03-5.82,7.05-7.76c3.02-1.94,6.45-2.92,10.28-2.92c2.99,0,5.7,0.66,8.12,1.97c2.42,1.31,4.33,3.27,5.75,5.87
			c1.42,2.6,2.13,5.79,2.13,9.57l-27.73,0.47c-0.05,6.3,0.99,11.21,3.11,14.73c2.13,3.52,5.42,5.28,9.89,5.28
			c2.42,0,4.9-0.63,7.45-1.89c2.55-1.26,4.5-2.81,5.87-4.65l1.89,1.58c-2,3.05-4.58,5.31-7.76,6.78c-3.18,1.47-6.29,2.21-9.34,2.21
			C182.5,185.97,179.23,185.12,176.31,183.41z M195.34,158.63c0-3.15-0.71-5.86-2.13-8.12c-1.42-2.26-3.55-3.39-6.38-3.39
			c-6.51,0-10.37,3.83-11.58,11.5H195.34z" />
			<path d="M208.97,182.35c1.52,0,2.63-0.38,3.31-1.14c0.68-0.76,1.09-1.75,1.22-2.95c0.13-1.21,0.2-3.05,0.2-5.52v-37.27
			c0-2,0.08-3.7,0.24-5.12l-5.59,0.31v-3.31c3.15,0,5.4-0.18,6.74-0.55c1.34-0.37,2.38-0.89,3.11-1.58h2.29v24.03
			c1.84-1.52,3.91-2.77,6.22-3.74c2.31-0.97,4.54-1.46,6.7-1.46c4.52,0,7.8,1.42,9.85,4.26s3.1,7.3,3.15,13.4l0.08,14.66
			c0,2.36-0.11,4.15-0.31,5.36l4.96-0.24v3.23h-16.07v-2.36c1.52,0,2.61-0.38,3.27-1.14c0.66-0.76,1.05-1.73,1.18-2.92
			c0.13-1.18,0.2-3.03,0.2-5.55V161.7c0-4.52-0.71-7.89-2.13-10.13c-1.42-2.23-3.65-3.35-6.7-3.35c-1.94,0-3.87,0.46-5.79,1.38
			c-1.92,0.92-3.46,2.09-4.61,3.51v23.24c0,2.05-0.13,3.83-0.39,5.36l4.96-0.24v3.23h-16.07V182.35z" />
			<path d="M256.96,182.35c1.52,0,2.61-0.38,3.27-1.14c0.66-0.76,1.05-1.73,1.18-2.92c0.13-1.18,0.2-3.03,0.2-5.55v-17.97
			c0-2.21,0.11-3.91,0.32-5.12l-5.6,0.24v-3.23h2.44c2,0,3.44-0.17,4.33-0.51c0.89-0.34,1.73-0.88,2.52-1.61h2.29
			c0.21,2.05,0.34,4.65,0.39,7.8c1.31-2.15,3.19-4.07,5.63-5.75c2.44-1.68,4.98-2.52,7.6-2.52c1.58,0,2.89,0.42,3.94,1.26
			c1.05,0.84,1.57,2.08,1.57,3.7c0,0.84-0.33,1.68-0.98,2.52c-0.66,0.84-1.59,1.26-2.8,1.26c-1.16,0-2.1-0.43-2.84-1.3
			c-0.74-0.87-1.03-1.9-0.87-3.11c-2-0.05-4,0.71-6.03,2.29c-2.02,1.58-3.74,3.68-5.16,6.3l0.08,19.38c0,2.36-0.11,4.15-0.31,5.36
			l4.96-0.24v3.23h-16.15V182.35z" />
			<path d="M291.07,182.35c1.52,0,2.61-0.38,3.27-1.14c0.66-0.76,1.04-1.71,1.14-2.84s0.18-3.01,0.24-5.63l0.08-17.97
			c0-2.21,0.1-3.91,0.32-5.12l-5.6,0.31v-3.31c3.1,0,5.23-0.17,6.38-0.51c1.16-0.34,2.13-0.88,2.92-1.61h2.29
			c0.1,1,0.21,2.6,0.31,4.81c1.79-1.58,3.82-2.85,6.11-3.82c2.29-0.97,4.53-1.46,6.74-1.46c4.57,0,7.9,1.43,10.01,4.3
			c2.1,2.86,3.15,7.32,3.15,13.36v14.66c0,2.36-0.1,4.15-0.32,5.36l4.97-0.24v3.23H317v-2.36c1.52,0,2.61-0.38,3.27-1.14
			c0.65-0.76,1.05-1.73,1.18-2.92c0.13-1.18,0.2-3.03,0.2-5.55V161.7c-0.05-4.52-0.79-7.92-2.21-10.2c-1.42-2.29-3.65-3.43-6.7-3.43
			c-1.89,0-3.77,0.47-5.63,1.42c-1.86,0.95-3.4,2.18-4.61,3.7c0.05,0.58,0.08,1.6,0.08,3.07l-0.08,20.09c0,2.36-0.11,4.15-0.32,5.36
			l4.97-0.24v3.23h-16.07V182.35z" />
			<path d="M348.28,184.99c-2.05-0.66-3.81-1.48-5.28-2.48l0.31,2.76H340l-0.47-13.55h2.44c0.1,2.15,0.7,4.07,1.77,5.75
			c1.07,1.68,2.5,3.01,4.25,3.98c1.76,0.97,3.64,1.46,5.63,1.46c2.26,0,4.27-0.54,6.03-1.61c1.76-1.08,2.64-2.61,2.64-4.61
			c0-1.47-0.43-2.71-1.3-3.7c-0.87-1-1.94-1.82-3.23-2.48c-1.29-0.66-3.09-1.43-5.4-2.32c-2.78-1.05-5.02-2.03-6.7-2.96
			c-1.68-0.92-3.12-2.17-4.33-3.74c-1.21-1.58-1.81-3.57-1.81-5.99c0-1.73,0.42-3.47,1.26-5.2c0.84-1.73,2.26-3.2,4.25-4.41
			c2-1.21,4.65-1.81,7.96-1.81c1.63,0,3.29,0.26,5,0.79c1.7,0.53,3.29,1.39,4.77,2.6l-0.16-2.99h3.31v13.79h-2.52
			c-0.16-3.04-1.09-5.68-2.8-7.92c-1.71-2.23-4.11-3.35-7.21-3.35c-2.36,0-4.24,0.59-5.63,1.77c-1.39,1.18-2.09,2.59-2.09,4.22
			c0,1.53,0.46,2.81,1.38,3.86c0.92,1.05,2.06,1.94,3.43,2.68c1.37,0.74,3.2,1.55,5.52,2.44c2.73,1.1,4.94,2.13,6.62,3.07
			c1.68,0.95,3.11,2.19,4.29,3.74c1.18,1.55,1.78,3.43,1.78,5.63c0,2.52-0.65,4.65-1.93,6.38c-1.29,1.73-2.97,3.03-5.04,3.9
			c-2.07,0.87-4.3,1.3-6.66,1.3C352.59,185.97,350.33,185.64,348.28,184.99z" />
			<path d="M379.48,171.47l0.16-22.85l-6.07,0.08v-3.39c2.52-0.05,4.66-1.19,6.42-3.43c1.76-2.23,3.06-4.77,3.9-7.6h2.68v11.03h13.24
			v3.07l-13.24,0.16c-0.05,8.04-0.09,13.61-0.12,16.7c-0.03,3.1-0.04,4.83-0.04,5.2c0,3.73,0.45,6.5,1.34,8.31
			c0.89,1.81,2.44,2.72,4.65,2.72c1.37,0,2.72-0.42,4.06-1.26c1.34-0.84,2.51-2,3.51-3.47l2.13,1.73c-2.05,3.05-4.07,5.06-6.07,6.03
			c-2,0.97-3.94,1.46-5.83,1.46C383,185.97,379.43,181.14,379.48,171.47z" />
			<path d="M405.88,182.35c1.52,0,2.61-0.38,3.27-1.14c0.66-0.76,1.05-1.73,1.18-2.92c0.13-1.18,0.2-3.03,0.2-5.55v-17.97
			c0-2.21,0.1-3.91,0.32-5.12l-5.6,0.24v-3.23h2.44c2,0,3.44-0.17,4.33-0.51c0.89-0.34,1.73-0.88,2.52-1.61h2.29
			c0.21,2.05,0.34,4.65,0.39,7.8c1.31-2.15,3.19-4.07,5.63-5.75c2.44-1.68,4.98-2.52,7.6-2.52c1.58,0,2.89,0.42,3.94,1.26
			c1.05,0.84,1.57,2.08,1.57,3.7c0,0.84-0.33,1.68-0.98,2.52c-0.66,0.84-1.59,1.26-2.8,1.26c-1.16,0-2.1-0.43-2.84-1.3
			c-0.74-0.87-1.03-1.9-0.87-3.11c-2-0.05-4,0.71-6.03,2.29c-2.02,1.58-3.74,3.68-5.16,6.3l0.08,19.38c0,2.36-0.11,4.15-0.32,5.36
			l4.96-0.24v3.23h-16.15V182.35z" />
			<path d="M449.02,183.41c-3.02-1.71-5.41-4.08-7.17-7.13c-1.76-3.05-2.64-6.49-2.64-10.32c0-4.1,0.87-7.81,2.6-11.15
			c1.73-3.33,4.11-5.96,7.13-7.88c3.02-1.92,6.37-2.88,10.04-2.88c3.62,0,6.96,0.88,10.01,2.64c3.04,1.76,5.45,4.16,7.21,7.21
			c1.76,3.05,2.64,6.44,2.64,10.17c0,3.99-0.88,7.67-2.64,11.03c-1.76,3.36-4.15,6.02-7.17,7.96c-3.02,1.94-6.37,2.92-10.05,2.92
			C455.36,185.97,452.04,185.12,449.02,183.41z M468.08,178.09c1.81-3.15,2.72-7.06,2.72-11.74c0-5.31-0.98-9.85-2.95-13.63
			c-1.97-3.78-4.92-5.67-8.87-5.67c-3.89,0-6.82,1.6-8.79,4.81c-1.97,3.2-2.95,7.14-2.95,11.82c0,3.36,0.46,6.5,1.38,9.42
			c0.92,2.91,2.31,5.27,4.17,7.05c1.87,1.79,4.14,2.68,6.82,2.68C463.45,182.82,466.27,181.24,468.08,178.09z M449.36,135.36
			c-0.76-0.89-1.14-1.99-1.14-3.3s0.39-2.42,1.17-3.33c0.78-0.92,1.71-1.38,2.78-1.38c1.12,0,2.04,0.46,2.78,1.38
			c0.73,0.92,1.1,2.03,1.1,3.33s-0.39,2.4-1.17,3.3c-0.78,0.89-1.71,1.34-2.78,1.34S450.12,136.26,449.36,135.36z M462.52,135.36
			c-0.76-0.89-1.14-1.99-1.14-3.3s0.39-2.42,1.17-3.33c0.78-0.92,1.71-1.38,2.78-1.38c1.12,0,2.04,0.46,2.78,1.38
			c0.74,0.92,1.1,2.03,1.1,3.33s-0.39,2.4-1.17,3.3c-0.78,0.89-1.71,1.34-2.78,1.34C464.19,136.7,463.27,136.26,462.52,135.36z" />
			<path d="M485.54,182.35c1.52,0,2.61-0.38,3.27-1.14c0.66-0.76,1.05-1.73,1.18-2.92c0.13-1.18,0.2-3.03,0.2-5.55v-17.97
			c0-2.21,0.1-3.91,0.32-5.12l-5.6,0.31v-3.31c3.1,0,5.23-0.17,6.38-0.51c1.15-0.34,2.13-0.88,2.91-1.61h2.29
			c0.1,0.79,0.21,2.18,0.32,4.18c1.63-1.42,3.47-2.55,5.52-3.39c2.05-0.84,4.07-1.26,6.07-1.26c2.57,0,4.77,0.46,6.58,1.38
			c1.81,0.92,3.22,2.22,4.22,3.9c1.89-1.52,4-2.78,6.34-3.78c2.34-1,4.58-1.5,6.74-1.5c4.62,0,8,1.41,10.12,4.22
			c2.13,2.81,3.14,7.29,3.03,13.44l-0.08,14.66c0,2.36-0.11,4.15-0.32,5.36l4.96-0.24v3.23h-16.07v-2.36c1.52,0,2.61-0.38,3.27-1.14
			c0.66-0.76,1.05-1.73,1.18-2.92c0.13-1.18,0.2-3.03,0.2-5.55V161.7c0-4.52-0.71-7.89-2.13-10.13c-1.42-2.23-3.65-3.35-6.7-3.35
			c-1.63,0-3.27,0.35-4.92,1.06c-1.66,0.71-3.11,1.64-4.37,2.8c0.52,1.63,0.79,3.55,0.79,5.75l-0.16,18.52
			c0,2.36-0.11,4.15-0.32,5.36l4.96-0.24v3.23h-16.07v-2.36c1.52,0,2.61-0.38,3.27-1.14c0.66-0.76,1.04-1.71,1.14-2.84
			c0.1-1.13,0.18-3.01,0.24-5.63l0.08-11.03c0.05-4.57-0.6-7.98-1.97-10.24c-1.37-2.26-3.55-3.39-6.54-3.39
			c-1.63,0-3.25,0.34-4.84,1.03c-1.6,0.68-2.98,1.6-4.14,2.76l0.08,4.25v20.25c0,2.36-0.11,4.15-0.32,5.36l4.97-0.24v3.23h-16.07
			V182.35z" />
		</g>
		<g>
			<path d="M136.32,246.04c-1.3-1.12-1.95-2.57-1.95-4.36c0-1.96,0.79-3.61,2.36-4.97c1.57-1.35,3.55-2.36,5.93-3.01
			c2.38-0.66,4.77-0.97,7.17-0.94v-3.14c0-2.19-0.32-3.91-0.96-5.14c-0.64-1.23-2.01-1.85-4.1-1.85c-1.05,0-2.04,0.22-2.99,0.66
			c-0.95,0.44-1.64,1.1-2.08,1.98c0.44,0.47,0.66,1.11,0.66,1.93c0,0.51-0.19,0.99-0.56,1.44c-0.37,0.45-0.91,0.68-1.62,0.68
			s-1.27-0.23-1.67-0.68c-0.41-0.46-0.61-1.06-0.61-1.8c0-1.11,0.43-2.14,1.29-3.06c0.86-0.93,2.06-1.66,3.6-2.2
			c1.54-0.54,3.25-0.81,5.14-0.81c2.84,0,4.93,0.75,6.28,2.25c1.35,1.5,2.01,3.87,1.97,7.12l-0.05,11.4c0,1.08-0.07,2.23-0.2,3.45
			l3.6-0.2v2.13h-7.24c-0.1-0.51-0.22-1.47-0.35-2.89c-2.47,2.47-5.12,3.7-7.95,3.7C139.5,247.71,137.62,247.15,136.32,246.04z
			 M146.62,244.09c1.05-0.49,2.11-1.24,3.19-2.25c-0.03-0.51-0.05-1.37-0.05-2.58l0.05-4.76c-2.77,0.1-5.24,0.67-7.4,1.7
			c-2.16,1.03-3.24,2.61-3.24,4.74c0,1.25,0.37,2.21,1.11,2.89c0.74,0.68,1.69,1.01,2.84,1.01
			C144.41,244.83,145.58,244.58,146.62,244.09z" />
			<path d="M161.01,245.38c0.98,0,1.68-0.24,2.1-0.73c0.42-0.49,0.67-1.11,0.76-1.87c0.08-0.76,0.13-1.95,0.13-3.57v-11.55
			c0-1.42,0.07-2.52,0.2-3.29l-3.6,0.15v-2.08h1.57c1.28,0,2.21-0.11,2.79-0.33c0.57-0.22,1.11-0.56,1.62-1.04h1.47
			c0.13,1.32,0.22,2.99,0.25,5.02c0.84-1.39,2.05-2.62,3.62-3.7c1.57-1.08,3.2-1.62,4.89-1.62c1.01,0,1.86,0.27,2.53,0.81
			c0.67,0.54,1.01,1.33,1.01,2.38c0,0.54-0.21,1.08-0.63,1.62c-0.42,0.54-1.02,0.81-1.8,0.81c-0.74,0-1.35-0.28-1.82-0.84
			c-0.47-0.56-0.66-1.22-0.56-2c-1.28-0.03-2.57,0.45-3.87,1.47c-1.3,1.01-2.41,2.36-3.32,4.05l0.05,12.46
			c0,1.52-0.07,2.67-0.2,3.45l3.19-0.15v2.07h-10.38V245.38z" />
			<path d="M182.28,245.38c0.98,0,1.68-0.24,2.1-0.73c0.42-0.49,0.67-1.1,0.74-1.85c0.07-0.74,0.1-1.94,0.1-3.59
			c0-0.34,0.01-2.18,0.03-5.52c0.02-3.34,0.02-9.49,0.02-18.44c0-1.28,0.05-2.38,0.15-3.29l-3.6,0.2v-2.13
			c1.99,0,3.42-0.12,4.28-0.35c0.86-0.24,1.53-0.57,2-1.01h1.47v23.96h2.03l6.18-6.48c1.28-1.35,2.28-2.25,2.99-2.68l-3.44,0.15
			v-2.03h9.22v1.52c-1.49,0.17-2.84,0.71-4.05,1.62c-1.22,0.91-2.57,2.14-4.05,3.7l-3.95,4.15c0.61,0.27,1.14,0.62,1.6,1.04
			c0.45,0.42,0.97,0.99,1.54,1.7l3.6,4.61c0.07,0.07,0.45,0.58,1.14,1.54c0.69,0.96,1.52,1.86,2.48,2.68
			c0.96,0.83,1.8,1.24,2.51,1.24v1.52h-4.61c-0.81,0-1.57-0.35-2.28-1.06c-0.71-0.71-1.74-1.94-3.09-3.7l-1.98-2.79
			c-0.74-1.05-1.44-2.02-2.1-2.91c-0.66-0.89-1.21-1.55-1.65-1.95l-2.08,0.1v6.94c0,1.52-0.07,2.67-0.2,3.45l3.24-0.15v2.07h-10.33
			V245.38z" />
			<path d="M209.94,245.38c0.98,0,1.68-0.24,2.1-0.73c0.42-0.49,0.67-1.11,0.76-1.87c0.08-0.76,0.13-1.95,0.13-3.57v-11.55
			c0-0.98,0.07-2.08,0.2-3.29l-3.6,0.2v-2.13c1.99,0,3.42-0.12,4.28-0.35c0.86-0.24,1.53-0.57,2-1.01h1.47v20.46
			c0,1.52-0.07,2.67-0.2,3.45l3.19-0.15v2.07h-10.33V245.38z M213.08,215.17c-0.54-0.59-0.81-1.29-0.81-2.1s0.28-1.52,0.84-2.13
			c0.56-0.61,1.19-0.91,1.9-0.91c0.78,0,1.43,0.3,1.95,0.89c0.52,0.59,0.78,1.31,0.78,2.15c0,0.81-0.28,1.51-0.84,2.1
			c-0.56,0.59-1.21,0.89-1.95,0.89C214.25,216.05,213.62,215.76,213.08,215.17z" />
			<path d="M227.62,238.39l0.1-14.69l-3.9,0.05v-2.18c1.62-0.03,3-0.77,4.13-2.2c1.13-1.43,1.97-3.06,2.51-4.89h1.72v7.09h8.51v1.98
			l-8.51,0.1c-0.03,5.17-0.06,8.75-0.08,10.74c-0.02,1.99-0.02,3.11-0.02,3.34c0,2.4,0.29,4.18,0.86,5.35
			c0.57,1.17,1.57,1.75,2.99,1.75c0.88,0,1.75-0.27,2.61-0.81c0.86-0.54,1.61-1.28,2.25-2.23l1.37,1.11
			c-1.32,1.96-2.62,3.25-3.9,3.87c-1.28,0.62-2.53,0.94-3.75,0.94C229.88,247.71,227.58,244.61,227.62,238.39z" />
			<path d="M250.54,246.07c-1.87-1.1-3.35-2.67-4.43-4.71c-1.08-2.04-1.62-4.4-1.62-7.07c0-2.36,0.54-4.58,1.62-6.66
			c1.08-2.08,2.59-3.74,4.53-4.99c1.94-1.25,4.15-1.87,6.61-1.87c1.93,0,3.66,0.42,5.22,1.27c1.55,0.84,2.79,2.1,3.7,3.77
			c0.91,1.67,1.37,3.72,1.37,6.15l-17.83,0.3c-0.03,4.05,0.63,7.21,2,9.47c1.37,2.26,3.49,3.39,6.36,3.39c1.55,0,3.15-0.4,4.79-1.21
			s2.9-1.81,3.77-2.99l1.22,1.01c-1.28,1.96-2.95,3.41-4.99,4.36c-2.04,0.95-4.04,1.42-6,1.42
			C254.51,247.71,252.41,247.16,250.54,246.07z M262.77,230.13c0-2.03-0.46-3.76-1.37-5.22c-0.91-1.45-2.28-2.18-4.1-2.18
			c-4.19,0-6.67,2.47-7.45,7.4H262.77z" />
			<path d="M271.58,245.38c0.98,0,1.68-0.24,2.1-0.73c0.42-0.49,0.67-1.1,0.74-1.85c0.07-0.74,0.1-1.94,0.1-3.59
			c0-0.34,0.01-2.18,0.03-5.52c0.02-3.34,0.02-9.49,0.02-18.44c0-1.28,0.05-2.38,0.15-3.29l-3.6,0.2v-2.13
			c1.99,0,3.42-0.12,4.28-0.35c0.86-0.24,1.53-0.57,2-1.01h1.47v23.96h2.03l6.18-6.48c1.28-1.35,2.28-2.25,2.99-2.68l-3.45,0.15
			v-2.03h9.22v1.52c-1.49,0.17-2.84,0.71-4.05,1.62c-1.21,0.91-2.56,2.14-4.05,3.7l-3.95,4.15c0.61,0.27,1.14,0.62,1.6,1.04
			c0.46,0.42,0.97,0.99,1.54,1.7l3.6,4.61c0.07,0.07,0.45,0.58,1.14,1.54c0.69,0.96,1.52,1.86,2.48,2.68
			c0.96,0.83,1.8,1.24,2.51,1.24v1.52h-4.61c-0.81,0-1.57-0.35-2.28-1.06c-0.71-0.71-1.74-1.94-3.09-3.7l-1.98-2.79
			c-0.74-1.05-1.45-2.02-2.1-2.91c-0.66-0.89-1.21-1.55-1.65-1.95l-2.08,0.1v6.94c0,1.52-0.07,2.67-0.2,3.45l3.24-0.15v2.07h-10.33
			V245.38z" />
			<path d="M301.87,238.39l0.1-14.69l-3.9,0.05v-2.18c1.62-0.03,3-0.77,4.13-2.2c1.13-1.43,1.97-3.06,2.51-4.89h1.72v7.09h8.51v1.98
			l-8.51,0.1c-0.03,5.17-0.06,8.75-0.07,10.74c-0.02,1.99-0.03,3.11-0.03,3.34c0,2.4,0.29,4.18,0.86,5.35
			c0.57,1.17,1.57,1.75,2.99,1.75c0.88,0,1.75-0.27,2.61-0.81c0.86-0.54,1.61-1.28,2.25-2.23l1.37,1.11
			c-1.32,1.96-2.62,3.25-3.9,3.87c-1.28,0.62-2.53,0.94-3.75,0.94C304.14,247.71,301.84,244.61,301.87,238.39z" />
			<path d="M323.22,245.23c-1.33-1.65-2-4.51-2-8.56v-9.02c0-1.42,0.07-2.52,0.2-3.29l-3.5,0.15v-2.08h1.57
			c1.32,0,2.31-0.12,2.99-0.35c0.68-0.24,1.25-0.57,1.72-1.01h1.47v15.45c0,2.97,0.41,5.15,1.24,6.53c0.83,1.39,2.2,2.08,4.13,2.08
			c1.25,0,2.47-0.37,3.67-1.11c1.2-0.74,2.17-1.67,2.91-2.79v-13.02c0-1.59,0.09-2.87,0.25-3.85l-3.65,0.15v-2.08h1.57
			c1.32,0,2.31-0.12,2.99-0.35c0.68-0.24,1.25-0.57,1.72-1.01h1.47l-0.05,19.15c0,1.96-0.07,3.55-0.2,4.76l3.65-0.2v2.13h-7.24
			c-0.17-1.04-0.29-2.06-0.35-3.04c-1.12,1.12-2.42,2.04-3.9,2.76c-1.49,0.73-2.94,1.09-4.36,1.09
			C326.66,247.71,324.56,246.88,323.22,245.23z" />
			<path d="M349.08,245.38c0.98,0,1.68-0.24,2.1-0.73c0.42-0.49,0.68-1.11,0.76-1.87c0.09-0.76,0.13-1.95,0.13-3.57v-11.55
			c0-1.42,0.07-2.52,0.2-3.29l-3.59,0.15v-2.08h1.57c1.28,0,2.21-0.11,2.79-0.33c0.57-0.22,1.11-0.56,1.62-1.04h1.47
			c0.13,1.32,0.22,2.99,0.25,5.02c0.84-1.39,2.05-2.62,3.62-3.7c1.57-1.08,3.2-1.62,4.89-1.62c1.01,0,1.85,0.27,2.53,0.81
			c0.68,0.54,1.01,1.33,1.01,2.38c0,0.54-0.21,1.08-0.63,1.62c-0.42,0.54-1.02,0.81-1.8,0.81c-0.74,0-1.35-0.28-1.82-0.84
			c-0.47-0.56-0.66-1.22-0.56-2c-1.28-0.03-2.57,0.45-3.87,1.47c-1.3,1.01-2.41,2.36-3.32,4.05l0.05,12.46
			c0,1.52-0.07,2.67-0.2,3.45l3.19-0.15v2.07h-10.38V245.38z" />
		</g>
	</g>
</svg>